<svg width="39" height="44" viewBox="0 0 39 44" fill="none" xmlns="http://www.w3.org/2000/svg">
<path d="M7.84371 11.182C7.98502 10.028 8.45603 8.96825 9.15079 8.10864L7.39624 6.28345L1.99131 9.40394C1.36721 9.76898 0.801994 10.4402 0.44873 11.182H7.84371Z" fill="#262262"/>
<path d="M19.4425 31.4949L15.0856 18.0121C14.7206 18.0827 14.3438 18.118 13.9552 18.118C13.2133 18.118 12.5068 17.9885 11.8474 17.7412L7.59644 25.9605C8.19698 26.5139 8.58558 27.3147 8.58558 28.1978C8.58558 28.3156 8.57379 28.4333 8.56202 28.5511L18.3945 32.4841C18.6654 32.0955 19.0304 31.754 19.4425 31.4949Z" fill="#1C75BC"/>
<path d="M5.55981 25.1837C5.78355 25.1837 5.99551 25.2072 6.20746 25.2543L10.4584 17.035C9.05712 16.0695 8.07976 14.5269 7.85603 12.7488H0.0842285V12.7606V18.5423L4.60601 25.3367C4.90039 25.2425 5.21833 25.1837 5.55981 25.1837Z" fill="#2B3990"/>
<path d="M21.2327 31.0006C21.4918 31.0006 21.7508 31.0359 21.9981 31.083L27.2382 20.1907C26.1078 19.3782 25.3777 18.0593 25.3777 16.5521C25.3777 16.399 25.3895 16.2341 25.4012 16.0811L19.6077 14.4089C19.0072 15.7867 17.9356 16.8936 16.5814 17.5294L20.9383 31.0123C21.0325 31.0123 21.1385 31.0006 21.2327 31.0006Z" fill="#1C75BC"/>
<path d="M32.4194 20.2261C32.1721 20.4027 31.9013 20.5558 31.6069 20.6735L32.7727 25.7134C34.0444 25.8312 35.0454 26.9028 35.0454 28.1981C35.0454 28.5984 34.9512 28.987 34.7745 29.3285L38.1541 32.7081C38.5544 32.0604 38.8135 31.3185 38.8135 30.6591V26.6319L32.4194 20.2261Z" fill="#2EA8E0"/>
<path d="M17.7586 34.4744C17.7586 34.2977 17.7704 34.1211 17.7939 33.9445L7.97319 30.0115C7.73768 30.3176 7.45508 30.5885 7.12537 30.7887L9.29205 38.219L13.7903 40.8096L18.2885 36.3113C17.9588 35.7814 17.7586 35.1456 17.7586 34.4744Z" fill="#2EA8E0"/>
<path d="M31.2417 26.0663L30.076 21.0264C30.0053 21.0264 29.9229 21.0264 29.8523 21.0264C29.4401 21.0264 29.028 20.9676 28.6511 20.8616L23.4111 31.7539C23.5524 31.8716 23.6937 32.0012 23.8114 32.1307L30.0878 28.6569C30.0642 28.5038 30.0407 28.3508 30.0407 28.1859C30.0407 27.3027 30.5234 26.502 31.2417 26.0663Z" fill="#2EA8E0"/>
<path d="M37.5651 9.95752L33.5261 13.9965C34.0325 14.7266 34.3386 15.6097 34.3386 16.5635C34.3386 17.5174 34.0442 18.4005 33.5261 19.1306L38.8133 24.4178V12.7719C38.8133 11.818 38.2952 10.6994 37.5651 9.95752Z" fill="#1C75BC"/>
<path d="M23.0695 37.4182C22.5396 37.7479 21.9037 37.9481 21.2325 37.9481C20.5613 37.9481 19.9254 37.7597 19.3955 37.4182L15.1917 41.6221L17.4997 42.9527C18.5713 43.565 20.314 43.565 21.3738 42.9527L25.9545 40.3032L23.0695 37.4182Z" fill="#5DCBEC"/>
<path d="M5.61844 31.2242C5.59489 31.2242 5.57134 31.2242 5.55956 31.2242C3.88745 31.2242 2.53328 29.87 2.53328 28.1979C2.53328 27.4325 2.81589 26.7378 3.28691 26.1961L0.0722046 21.3682V30.6472C0.0722046 31.8836 0.943588 33.3909 2.01515 34.0032L7.33765 37.0766L5.61844 31.2242Z" fill="#1C75BC"/>
<path d="M33.6675 30.4352C33.326 30.6001 32.9492 30.7061 32.537 30.7061C31.8776 30.7061 31.2888 30.4588 30.8414 30.0466L24.565 33.5204C24.6475 33.8266 24.6946 34.1445 24.6946 34.4742C24.6946 35.1454 24.5062 35.7813 24.1647 36.3112L27.3558 39.5023L36.8586 34.015C36.9293 33.9679 37.0117 33.9208 37.0824 33.8737L33.6675 30.4352Z" fill="#5DCBEC"/>
<path d="M20.1137 11.9713C20.1137 12.2893 20.0901 12.6072 20.043 12.9134L25.8365 14.5855C26.4018 13.4433 27.4262 12.5837 28.6862 12.2422L27.9679 4.27018L21.8564 0.737549L17.841 7.1905C19.2305 8.32094 20.1137 10.0402 20.1137 11.9713Z" fill="#2B3990"/>
<path d="M10.293 7.02577C11.3174 6.26037 12.5892 5.8129 13.9669 5.8129C14.8736 5.8129 15.745 6.01308 16.5222 6.36635L20.4081 0.101805C19.4307 -0.110153 18.2885 0.00760602 17.5113 0.466849L8.82104 5.48319L10.293 7.02577Z" fill="#262262"/>
<path d="M36.2583 9.05163L29.6287 5.22461L30.241 12.1015C31.0418 12.1721 31.7954 12.4547 32.4195 12.8904L36.2583 9.05163Z" fill="#2B3990"/>
<path d="M8.56228 28.5632L18.3948 32.4962C18.6774 32.0958 19.0307 31.7543 19.4546 31.507L15.5922 19.5549C12.7072 21.4155 10.1049 23.6528 7.82043 26.2081C8.29145 26.738 8.58584 27.4445 8.58584 28.2217C8.58584 28.3276 8.57406 28.4454 8.56228 28.5632Z" fill="url(#paint0_linear)"/>
<path d="M21.2329 31.0003C21.492 31.0003 21.751 31.0356 21.9983 31.0827L27.2384 20.1904C26.108 19.3779 25.3779 18.0591 25.3779 16.5518C25.3779 16.3987 25.3897 16.2339 25.4014 16.0808L23.6587 15.5745C21.3154 16.3987 19.0662 17.4468 16.9584 18.6832L20.9385 31.0003C21.0327 31.0121 21.1387 31.0003 21.2329 31.0003Z" fill="url(#paint1_linear)"/>
<path d="M31.6069 20.6852L32.7727 25.7251C34.0444 25.8429 35.0454 26.9144 35.0454 28.2097C35.0454 28.6101 34.9512 28.9987 34.7745 29.3402L38.1541 32.7197C38.5544 32.0721 38.8135 31.3302 38.8135 30.6708V26.6436L32.4194 20.2495C32.1721 20.4026 31.9013 20.5557 31.6069 20.6852Z" fill="url(#paint2_linear)"/>
<path d="M17.7591 34.4739C17.7591 34.2973 17.7709 34.1206 17.7945 33.944L7.97374 30.011C7.73823 30.3171 7.45563 30.588 7.12592 30.7882L9.2926 38.2185L13.7908 40.8091L18.289 36.3109C17.9593 35.781 17.7591 35.1451 17.7591 34.4739Z" fill="url(#paint3_linear)"/>
<path d="M23.812 32.1542L30.0883 28.6805C30.0648 28.5274 30.0412 28.3743 30.0412 28.2095C30.0412 27.3027 30.524 26.5138 31.2423 26.0663L30.0765 21.0264C30.0059 21.0264 29.9235 21.0264 29.8528 21.0264C29.4407 21.0264 29.0285 20.9676 28.6517 20.8616L23.4116 31.7539C23.5529 31.8834 23.6825 32.0129 23.812 32.1542Z" fill="url(#paint4_linear)"/>
<path d="M34.3392 16.5637C34.3392 17.5176 34.0448 18.4007 33.5267 19.1308L38.8139 24.418V13.5492C37.966 13.4903 37.1182 13.4668 36.2586 13.4668C35.505 13.4668 34.7513 13.4904 34.0095 13.5375L33.5384 14.0085C34.033 14.7268 34.3392 15.6099 34.3392 16.5637Z" fill="url(#paint5_linear)"/>
<path d="M21.2331 37.9479C20.5619 37.9479 19.926 37.7595 19.3961 37.418L15.1923 41.6219L17.5002 42.9525C18.5718 43.5648 20.3146 43.5648 21.3744 42.9525L25.955 40.303L23.0583 37.4062C22.5401 37.7595 21.9043 37.9479 21.2331 37.9479Z" fill="url(#paint6_linear)"/>
<path d="M5.61854 31.2239C5.59499 31.2239 5.57144 31.2239 5.55966 31.2239C5.07687 31.2239 4.61762 31.1062 4.21726 30.906C3.53428 31.9658 2.89841 33.0609 2.32141 34.1796L7.32598 37.0763L5.61854 31.2239Z" fill="url(#paint7_linear)"/>
<path d="M32.549 30.7061C31.8896 30.7061 31.3008 30.4588 30.8533 30.0466L24.577 33.5204C24.6594 33.8266 24.7065 34.1445 24.7065 34.4742C24.7065 35.1454 24.5181 35.7813 24.1766 36.3112L27.3678 39.5023L36.8706 34.015C36.9412 33.9679 37.0237 33.9208 37.0943 33.8737L33.6677 30.447C33.3262 30.6119 32.9494 30.7061 32.549 30.7061Z" fill="url(#paint8_linear)"/>
<defs>
<linearGradient id="paint0_linear" x1="11.1825" y1="22.4244" x2="16.0764" y2="31.3966" gradientUnits="userSpaceOnUse">
<stop stop-color="white" stop-opacity="0.4"/>
<stop offset="1" stop-color="white" stop-opacity="0"/>
</linearGradient>
<linearGradient id="paint1_linear" x1="19.9478" y1="17.643" x2="24.8419" y2="26.6154" gradientUnits="userSpaceOnUse">
<stop stop-color="white" stop-opacity="0.4"/>
<stop offset="1" stop-color="white" stop-opacity="0"/>
</linearGradient>
<linearGradient id="paint2_linear" x1="28.5764" y1="12.9368" x2="33.4704" y2="21.909" gradientUnits="userSpaceOnUse">
<stop stop-color="white" stop-opacity="0.4"/>
<stop offset="1" stop-color="white" stop-opacity="0"/>
</linearGradient>
<linearGradient id="paint3_linear" x1="7.26331" y1="24.5617" x2="12.1573" y2="33.534" gradientUnits="userSpaceOnUse">
<stop stop-color="white" stop-opacity="0.4"/>
<stop offset="1" stop-color="white" stop-opacity="0"/>
</linearGradient>
<linearGradient id="paint4_linear" x1="21.5059" y1="16.7932" x2="26.3999" y2="25.7656" gradientUnits="userSpaceOnUse">
<stop stop-color="white" stop-opacity="0.4"/>
<stop offset="1" stop-color="white" stop-opacity="0"/>
</linearGradient>
<linearGradient id="paint5_linear" x1="33.0039" y1="10.5219" x2="37.8978" y2="19.4942" gradientUnits="userSpaceOnUse">
<stop stop-color="white" stop-opacity="0.4"/>
<stop offset="1" stop-color="white" stop-opacity="0"/>
</linearGradient>
<linearGradient id="paint6_linear" x1="10.6283" y1="22.7264" x2="15.5223" y2="31.6988" gradientUnits="userSpaceOnUse">
<stop stop-color="white" stop-opacity="0.4"/>
<stop offset="1" stop-color="white" stop-opacity="0"/>
</linearGradient>
<linearGradient id="paint7_linear" x1="1.3" y1="27.8146" x2="6.19388" y2="36.7867" gradientUnits="userSpaceOnUse">
<stop stop-color="white" stop-opacity="0.4"/>
<stop offset="1" stop-color="white" stop-opacity="0"/>
</linearGradient>
<linearGradient id="paint8_linear" x1="20.8537" y1="17.1491" x2="25.7477" y2="26.1214" gradientUnits="userSpaceOnUse">
<stop stop-color="white" stop-opacity="0.4"/>
<stop offset="1" stop-color="white" stop-opacity="0"/>
</linearGradient>
</defs>
</svg>
